<svg width="328" height="299" viewBox="0 0 328 299" fill="none" xmlns="http://www.w3.org/2000/svg">
<path d="M318.204 298.869C323.483 298.869 327.792 294.637 327.872 289.358C328.276 263.049 330.396 224.242 280.848 213.509C240.752 204.824 264.525 133.568 156.541 138.172C79.027 141.477 99.6199 206.813 39.3502 212.254C-0.754188 215.875 -1.10124 266.596 0.439602 289.837C0.776779 294.921 4.99378 298.87 10.0886 298.87H318.204V298.869Z" fill="#B5DFEA"/>
<path opacity="0.55" d="M280.848 213.509C240.752 204.824 264.525 133.568 156.541 138.172C138.105 138.958 125.226 143.257 115.482 149.421C118.765 148.991 122.249 148.688 125.962 148.53C233.946 143.926 210.173 215.182 250.269 223.868C299.288 234.486 297.737 272.582 297.307 298.87H318.204C323.483 298.87 327.792 294.638 327.872 289.359C328.276 263.049 330.396 224.242 280.848 213.509Z" fill="#90CEDD"/>
<path d="M110.853 0H109.148V124.39H110.853V0Z" fill="#79C9E8"/>
<path d="M233.098 0H231.393V143.499H233.098V0Z" fill="#79C9E8"/>
<path d="M232.935 135.134L106.154 120.336C100.735 119.703 95.8305 123.583 95.1986 129.002L85.7364 210.071C85.1038 215.49 88.9836 220.395 94.402 221.027L221.183 235.825C226.601 236.457 231.506 232.577 232.138 227.159L241.6 146.089C242.232 140.671 238.353 135.766 232.935 135.134Z" fill="#D7F0F9"/>
<path d="M240.663 154.114L241.6 146.089C242.232 140.671 238.353 135.766 232.934 135.134L106.154 120.336C100.736 119.703 95.8305 123.583 95.1987 129.002L94.2623 137.026L240.663 154.114Z" fill="#0582C1"/>
<path d="M114.774 186.115L130.845 157.8C131.874 155.986 133.89 154.964 135.961 155.206C138.809 155.538 140.848 158.116 140.516 160.964L137.173 189.606L137.316 189.623C139.289 189.853 140.702 191.64 140.472 193.613C140.242 195.586 138.455 196.999 136.482 196.769L136.34 196.752L135.731 201.969C135.482 204.099 133.553 205.625 131.422 205.377C129.291 205.128 127.765 203.199 128.013 201.068L128.622 195.852L117.053 194.501C115.076 194.27 113.661 192.481 113.891 190.505L114.198 187.876C114.27 187.256 114.466 186.657 114.774 186.115ZM129.511 188.233L131.584 170.471C131.599 170.348 131.433 170.294 131.372 170.401L121.877 187.156C121.71 187.452 121.898 187.823 122.236 187.863L128.984 188.65C129.245 188.68 129.481 188.494 129.511 188.233Z" fill="#79C9E8"/>
<path d="M185.7 194.393L201.77 166.078C202.8 164.264 204.816 163.242 206.887 163.484C209.735 163.817 211.774 166.395 211.442 169.243L208.099 197.884L208.242 197.901C210.215 198.131 211.628 199.918 211.398 201.891C211.168 203.864 209.381 205.277 207.408 205.047L207.265 205.03L206.656 210.247C206.407 212.378 204.478 213.903 202.347 213.655C200.217 213.406 198.691 211.477 198.939 209.346L199.548 204.13L187.979 202.78C186.002 202.549 184.587 200.76 184.817 198.783L185.124 196.155C185.196 195.534 185.392 194.936 185.7 194.393ZM200.438 196.511L202.511 178.749C202.525 178.626 202.36 178.572 202.299 178.68L192.804 195.435C192.636 195.73 192.824 196.101 193.162 196.141L199.911 196.928C200.171 196.959 200.407 196.772 200.438 196.511Z" fill="#79C9E8"/>
<path d="M153.815 169.457C154.749 161.455 159.499 157.373 167.216 158.274C174.934 159.175 178.616 164.24 177.682 172.244L174.646 198.253C173.712 206.257 168.962 210.338 161.245 209.437C153.527 208.537 149.845 203.471 150.779 195.468L153.815 169.457ZM158.581 196.884C158.164 200.457 159.578 201.998 162.078 202.29C164.579 202.581 166.31 201.408 166.727 197.835L169.879 170.825C170.296 167.252 168.883 165.711 166.382 165.42C163.881 165.128 162.15 166.302 161.734 169.875L158.581 196.884Z" fill="#79C9E8"/>
<path d="M109.208 131.539C109.037 132.994 107.719 134.037 106.263 133.868C104.807 133.698 103.765 132.379 103.935 130.924C104.105 129.468 105.423 128.425 106.879 128.595C108.336 128.765 109.378 130.083 109.208 131.539Z" fill="white"/>
<path d="M121.925 133.023C121.754 134.479 120.436 135.522 118.98 135.352C117.525 135.182 116.482 133.864 116.651 132.408C116.821 130.952 118.14 129.91 119.595 130.08C121.052 130.249 122.095 131.568 121.925 133.023Z" fill="#96CCE3"/>
<path d="M135.107 134.562C134.937 136.018 133.619 137.06 132.163 136.89C130.707 136.72 129.664 135.402 129.835 133.946C130.005 132.49 131.323 131.448 132.779 131.618C134.235 131.788 135.277 133.106 135.107 134.562Z" fill="#FFC457"/>
<path d="M84.1052 226.905C84.1052 226.905 82.3927 234.498 82.6783 242.261C82.9342 249.211 82.1072 294.896 82.1072 294.896H87.6873C87.6873 294.896 95.6307 259.116 95.9276 256.29C96.2246 253.464 100.22 225.207 100.22 225.207L84.1052 226.905Z" fill="#00668E"/>
<path d="M87.8157 224.821C87.8157 224.821 89.0998 234.583 91.2831 241.519C93.4664 248.454 104.198 294.895 104.198 294.895H109.779C109.779 294.895 108.751 259.115 108.365 256.289C107.98 253.463 105.154 225.206 105.154 225.206L87.8157 224.821Z" fill="#0582C1"/>
<path d="M104.655 294.887V298.781H115.277C115.881 298.781 116.117 297.999 115.615 297.664C114.061 296.63 111.573 295.204 109.26 294.886H104.655V294.887Z" fill="#0582C1"/>
<path d="M82.392 294.887V298.781H93.0146C93.6183 298.781 93.8537 297.999 93.3517 297.664C91.798 296.63 89.3102 295.204 86.997 294.886H82.392V294.887Z" fill="#0582C1"/>
<path d="M101.557 179.414C101.557 179.414 105.211 173.867 101.016 173.325C97.7951 172.91 96.4699 173.869 96.4699 173.869C96.4699 173.869 92.7617 173.46 90.7318 175.219C89.3414 176.424 84.2366 185.773 92.4906 189.156C100.745 192.539 98.9859 183.879 98.9859 183.879L101.557 179.414Z" fill="#00668E"/>
<path d="M101.016 173.325C97.7958 172.91 96.4707 173.869 96.4707 173.869C96.4707 173.869 92.7625 173.46 90.7326 175.219C89.3421 176.424 84.2374 185.773 92.4914 189.156C96.3712 190.746 98.0381 189.674 98.7155 188.093C90.8837 190.296 90.0355 180.858 91.3264 178.172C92.6387 175.443 95.7872 176.703 95.7872 176.703C97.019 173.603 101.032 173.939 102.686 174.18C102.386 173.75 101.863 173.435 101.016 173.325Z" fill="#05556D"/>
<path d="M96.4153 182.12C96.4153 182.12 95.3332 181.038 94.5214 182.12C93.7095 183.203 94.251 185.638 95.6035 185.773C95.6035 185.773 95.1972 189.292 92.4915 189.156V191.998H98.8507V189.832C98.8507 189.832 102.775 188.209 102.639 184.962C102.504 181.714 101.557 179.414 101.557 179.414C101.557 179.414 99.3922 181.85 96.4153 182.12Z" fill="#F98D3D"/>
<path d="M97.3889 190.743C98.0184 191.005 97.9083 191.402 97.9364 191.998H98.8515V189.833C98.8515 189.833 97.3107 190.323 95.0537 189.037C95.0537 189.037 96.3667 190.317 97.3889 190.743Z" fill="#ED701B"/>
<path d="M98.6904 176.941C98.6904 176.941 95.3938 175.628 95.0088 176.613C94.7567 177.258 95.3984 177.814 96.2778 178.374L95.5017 178.502C95.3293 178.531 95.267 178.751 95.403 178.861C95.6194 179.035 96.217 179.153 97.4632 179.196L98.6904 176.941Z" fill="#F98D3D"/>
<path d="M122.229 185.198C115.943 180.54 98.7755 176.815 98.7755 176.815L97.3607 179.394C97.3607 179.394 112.946 185.433 111.917 186.333C111.313 186.865 103.696 190.354 101.119 191.528C100.565 191.78 99.9617 191.903 99.3466 191.892L91.4563 191.847C91.4563 191.847 85.7638 191.171 81.284 196.316C77.2804 200.924 70.4746 211.593 70.4746 211.593L81.9386 228.454L83.2084 230.316L83.2198 230.293L83.2084 230.449C83.2084 230.449 83.6162 230.494 84.3376 230.561C88.023 230.902 99.8333 231.836 106.086 230.511L106.259 230.471L105.963 202.813C115.944 194.911 120.709 188.81 122.414 186.892C122.861 186.383 122.777 185.606 122.229 185.198ZM83.7612 222.917L82.6426 220.473L79.0802 212.689L84.9915 206.068L83.9291 220.596L83.7612 222.917Z" fill="#FFC457"/>
<path d="M82.6426 220.473L83.7612 222.917L83.2182 230.293L83.2076 230.315L81.9379 228.453L82.6426 220.473Z" fill="#EFAA3A"/>
<path opacity="0.29" d="M103.295 201.819C102.233 202.59 102.502 209.43 102.24 213.707C101.801 220.869 101.373 227.066 101.689 231.062C103.307 230.956 104.812 230.781 106.085 230.511L106.258 230.471L105.962 202.813C115.943 194.911 120.708 188.81 122.414 186.892C122.861 186.383 122.777 185.606 122.229 185.198C122.229 185.198 114.339 193.8 103.295 201.819Z" fill="#F98D2B"/>
<path d="M108.366 256.289C108.088 254.25 106.54 238.972 105.699 230.621L101.689 231.062C101.689 231.062 107.539 279.158 107.923 294.895H109.779C109.779 294.895 108.752 259.115 108.366 256.289Z" fill="#00668E"/>
<path d="M51.2623 281.357C51.2623 281.357 49.5423 279.751 50.6966 273.657C51.8509 267.564 54.7791 261.712 53.3423 255.101C51.9055 248.491 40.6412 231.822 40.6033 230.714C40.5653 229.605 37.1282 250.105 42.9536 258.181C48.7791 266.256 49.48 269.058 49.221 273.304C48.9621 277.551 49.281 280.971 49.9197 281.959L51.2623 281.357Z" fill="#79C9E8"/>
<path d="M50.1961 269.101C49.5187 271.819 49.1102 278.635 50.1923 280.267C50.2933 280.419 50.4384 280.332 50.6191 280.051C50.2895 278.924 50.0731 276.95 50.6966 273.657C51.8509 267.564 54.7791 261.712 53.3423 255.101C51.9055 248.491 40.6412 231.822 40.6033 230.714C40.6033 230.714 42.3006 244.601 48.0174 254.16C52.1106 261.003 50.8735 266.382 50.1961 269.101Z" fill="#49B4D6"/>
<path d="M53.3165 280.933C53.3165 280.933 50.007 272.671 55.616 265.517C61.2242 258.364 70.1944 249.178 70.3728 245.539C70.3728 245.539 72.6776 262.815 65.3782 267.707C58.078 272.597 52.9588 273.378 54.2248 280.902L53.3165 280.933Z" fill="#79C9E8"/>
<path d="M61.1954 264.233C53.0553 270.158 52.39 276.983 53.6529 280.148C53.7509 280.394 53.937 280.545 54.1822 280.625C53.091 273.362 58.1684 272.536 65.3767 267.707C72.6769 262.816 70.3713 245.539 70.3713 245.539C70.3713 245.539 69.3355 258.309 61.1954 264.233Z" fill="#49B4D6"/>
<path d="M47.8738 281.119C47.8738 281.119 48.9354 276.744 48.3704 272.021C47.8054 267.297 42.8716 264.641 38.2612 259.652C35.8896 257.085 35.1879 243.511 36.6581 242.25C36.6581 242.25 28.5187 252.114 29.774 259.336C31.0293 266.558 44.3076 271.251 45.5363 274.741C46.7651 278.231 46.6633 281.16 46.6633 281.16L47.8738 281.119Z" fill="#79C9E8"/>
<path d="M33.9075 246.132C31.2169 253.417 33.9751 262.24 42.911 267.72C49.4898 271.754 47.3946 280.144 47.3946 280.144L48.4692 276.834C48.5641 275.403 48.5747 273.736 48.3697 272.021C47.8047 267.297 42.8708 264.641 38.2604 259.652C35.9731 257.176 35.2395 244.465 36.51 242.434C36.1379 242.903 35.0846 244.268 33.9075 246.132Z" fill="#49B4D6"/>
<path d="M36.5107 242.434C36.6026 242.317 36.6581 242.25 36.6581 242.25C36.6064 242.295 36.5578 242.359 36.5107 242.434Z" fill="#49B4D6"/>
<path d="M55.0198 280.573C55.0198 280.573 56.9274 273.494 61.6456 272.541C66.3638 271.588 71.7815 264.617 72.0746 263.249C72.0746 263.249 71.2787 276.398 55.0198 280.573Z" fill="#79C9E8"/>
<path d="M61.3761 274.882C58.485 276.328 57.2829 278.272 56.8561 280.037C71.3319 275.381 72.0746 263.25 72.0746 263.25C72.0169 263.52 71.7526 264.015 71.3395 264.633C69.9194 267.12 66.4823 272.329 61.3761 274.882Z" fill="#49B4D6"/>
<path d="M65.2294 277.966H40.5524L43.4829 296.397C43.7054 297.795 44.9106 298.824 46.3262 298.824H59.4556C60.8711 298.824 62.0763 297.795 62.2988 296.397L65.2294 277.966Z" fill="#FFC457"/>
<path d="M64.7449 281.015L65.2294 277.966H40.5524L41.0376 281.015H64.7449Z" fill="#FE9B0E"/>
<path d="M59.2512 277.966L56.3206 296.397C56.0981 297.795 54.893 298.824 53.4774 298.824H59.4555C60.871 298.824 62.0762 297.795 62.2987 296.397L65.2293 277.966H59.2512Z" fill="#E6830B"/>
<path d="M235.434 245.097H123.905V267.773H235.434V245.097Z" fill="#FFC457"/>
<path opacity="0.29" d="M235.434 245.097H123.905V250.601H235.434V245.097Z" fill="#E6830B"/>
<path d="M133.603 245.097H143.782L141.053 250.603H130.869L133.603 245.097Z" fill="#F77E2D"/>
<path d="M156.536 245.097H166.715L163.987 250.603H153.808L156.536 245.097Z" fill="#F77E2D"/>
<path d="M179.469 245.097H189.649L186.921 250.603H176.742L179.469 245.097Z" fill="#F77E2D"/>
<path d="M202.404 245.097H212.577L209.849 250.603H199.675L202.404 245.097Z" fill="#F77E2D"/>
<path d="M235.434 245.097V245.25L232.777 250.603H222.608L225.337 245.097H235.434Z" fill="#F77E2D"/>
<path d="M145.651 267.775H137.789V298.781H145.651V267.775Z" fill="#79C9E8"/>
<path d="M145.651 267.775H143.865V298.781H145.651V267.775Z" fill="#49B4D6"/>
<path d="M222.162 267.775H214.3V298.781H222.162V267.775Z" fill="#79C9E8"/>
<path d="M222.162 267.775H219.837V298.781H222.162V267.775Z" fill="#49B4D6"/>
<path d="M145.651 267.751H137.789V271.656H145.651V267.751Z" fill="#49B4D6"/>
<path d="M222.162 267.751H214.3V271.656H222.162V267.751Z" fill="#49B4D6"/>
<path d="M145.651 241.554H137.789V245.075H145.651V241.554Z" fill="#79C9E8"/>
<path d="M145.651 241.554H143.865V245.075H145.651V241.554Z" fill="#49B4D6"/>
<path d="M222.162 241.554H214.3V245.075H222.162V241.554Z" fill="#79C9E8"/>
<path d="M222.162 241.554H219.837V245.075H222.162V241.554Z" fill="#49B4D6"/>
<path d="M145.651 244.634H137.789V245.078H145.651V244.634Z" fill="#49B4D6"/>
<path d="M222.162 244.634H214.3V245.078H222.162V244.634Z" fill="#49B4D6"/>
<path d="M143.782 245.097L132.534 267.774H123.905V264.645L133.603 245.097H143.782Z" fill="#0582C1"/>
<path d="M156.536 245.097L145.289 267.774H155.468L166.715 245.097H156.536Z" fill="#0582C1"/>
<path d="M189.649 245.097L178.402 267.774H168.222L179.47 245.097H189.649Z" fill="#0582C1"/>
<path d="M212.577 245.097L201.335 267.774H191.156L202.404 245.097H212.577Z" fill="#0582C1"/>
<path d="M225.337 245.097L214.089 267.774H224.263L235.434 245.25L225.337 245.097Z" fill="#0582C1"/>
<path d="M143.782 245.097L141.053 250.603H130.869L133.603 245.097H143.782Z" fill="#00668E"/>
<path d="M166.715 245.097L163.987 250.603H153.808L156.536 245.097H166.715Z" fill="#00668E"/>
<path d="M189.649 245.097L186.921 250.603H176.742L179.469 245.097H189.649Z" fill="#00668E"/>
<path d="M212.577 245.097L209.849 250.603H199.675L202.404 245.097H212.577Z" fill="#00668E"/>
<path d="M235.434 245.25L232.777 250.603H222.608L225.337 245.097L235.434 245.25Z" fill="#00668E"/>
<path opacity="0.55" d="M233.513 254.908H127.013V266.25H233.513V254.908Z" fill="url(#paint0_linear_1726_51608)"/>
<path d="M142.627 243.557C146.449 242.935 149.042 239.333 148.421 235.512C147.799 231.691 144.197 229.097 140.376 229.719C136.555 230.341 133.961 233.942 134.583 237.764C135.204 241.585 138.806 244.179 142.627 243.557Z" fill="#FFC457"/>
<path d="M144.692 236.633C144.692 234.879 143.269 233.457 141.515 233.457C139.761 233.457 138.338 234.879 138.338 236.633C138.338 238.387 139.761 239.81 141.515 239.81C143.269 239.81 144.692 238.387 144.692 236.633Z" fill="#0582C1"/>
<path d="M219.297 243.56C223.118 242.938 225.712 239.336 225.09 235.515C224.468 231.694 220.867 229.1 217.045 229.722C213.224 230.344 210.631 233.946 211.252 237.767C211.874 241.588 215.476 244.182 219.297 243.56Z" fill="#FFC457"/>
<path d="M221.362 236.633C221.362 234.879 219.939 233.457 218.185 233.457C216.431 233.457 215.008 234.879 215.008 236.633C215.008 238.387 216.431 239.81 218.185 239.81C219.939 239.81 221.362 238.387 221.362 236.633Z" fill="#0582C1"/>
<path d="M277.688 296.377H242.168L247.601 283.207V283.199L249.786 277.885L250.388 276.429L251.369 274.058L251.57 273.575L253.756 268.26L254.157 267.294L258.029 257.892C258.728 256.197 261.129 256.197 261.827 257.892L265.7 267.294L266.101 268.26L268.286 273.575L268.487 274.058L269.468 276.429L270.07 277.885L272.255 283.199V283.207L277.688 296.377Z" fill="#FFC457"/>
<path opacity="0.29" d="M244.496 290.731L242.169 296.377H277.691L275.364 290.731H244.496Z" fill="#E6830B"/>
<path d="M280.012 293.001H239.33V298.752H280.012V293.001Z" fill="#79C9E8"/>
<path d="M280.011 293.001H271.222V298.752H280.011V293.001Z" fill="#49B4D6"/>
<path opacity="0.29" d="M276.29 292.999H271.266L267.23 283.21V283.202L265.045 277.888L264.443 276.432L263.462 274.061L263.261 273.578L261.076 268.263L260.675 267.297L257.419 259.382L258.029 257.896C258.727 256.201 261.128 256.201 261.827 257.896L265.699 267.298L266.1 268.264L268.285 273.579L268.486 274.061L269.467 276.432L270.069 277.889L272.255 283.203V283.211L276.29 292.999Z" fill="#E6830B"/>
<path d="M268.285 273.575H251.57L253.755 268.26H266.101L268.285 273.575Z" fill="#0582C1"/>
<path d="M272.255 283.199V283.207H247.601V283.199L249.786 277.885H270.069L272.255 283.199Z" fill="#0582C1"/>
<path d="M268.285 273.575H263.261L261.076 268.26H266.1L268.285 273.575Z" fill="#00668E"/>
<path d="M272.255 283.199V283.207H267.23V283.199L265.045 277.885H270.069L272.255 283.199Z" fill="#00668E"/>
<path d="M51.2721 167.228C53.9263 167.228 56.2334 165.3 56.5918 162.671C56.6563 162.2 56.689 161.718 56.689 161.229C56.689 155.375 51.9427 150.629 46.0884 150.629C45.8484 150.629 45.6107 150.64 45.3746 150.656C44.8908 144.883 40.0549 140.348 34.1566 140.348C27.937 140.348 22.8961 145.39 22.8961 151.609C22.8961 151.885 22.9097 152.157 22.9287 152.429C21.1639 151.443 19.1066 150.916 16.9195 151.016C11.2634 151.275 6.61587 155.8 6.21566 161.448C6.21262 161.493 6.20959 161.538 6.20731 161.582C6.02505 164.654 8.50832 167.23 11.5854 167.23H51.2721V167.228Z" fill="#D7F0F9"/>
<path d="M304.257 175.554C312.639 175.554 313.103 162.939 304.731 162.532C304.502 162.52 304.272 162.515 304.041 162.515C302.546 162.515 301.107 162.752 299.757 163.186C298.636 156.357 292.71 151.147 285.565 151.147C278.263 151.147 272.235 156.589 271.308 163.64C269.575 162.809 267.635 162.343 265.584 162.343C264.439 162.343 263.328 162.488 262.268 162.762C254.938 164.65 256.477 175.555 264.046 175.555H304.257V175.554Z" fill="#D7F0F9"/>
<path d="M203.592 113.397C211.972 113.397 212.436 100.786 204.066 100.379C203.837 100.367 203.607 100.362 203.376 100.362C201.882 100.362 200.443 100.599 199.093 101.032C197.973 94.2062 192.049 88.9974 184.906 88.9974C177.606 88.9974 171.58 94.4385 170.654 101.487C168.921 100.656 166.981 100.19 164.931 100.19C163.787 100.19 162.676 100.335 161.617 100.608C154.289 102.495 155.827 113.397 163.394 113.397H203.592Z" fill="#D7F0F9"/>
<path d="M70.1723 136.707C81.2678 136.707 90.2625 127.713 90.2625 116.617C90.2625 105.522 81.2678 96.5269 70.1723 96.5269C59.0768 96.5269 50.0822 105.522 50.0822 116.617C50.0822 127.713 59.0768 136.707 70.1723 136.707Z" fill="#FFC457"/>
<path d="M70.337 96.5307C75.801 100.121 79.4112 106.302 79.4112 113.328C79.4112 124.424 70.4168 133.418 59.321 133.418C59.2656 133.418 59.2109 133.414 59.1562 133.414C62.3199 135.494 66.1033 136.706 70.1722 136.706C81.268 136.706 90.2624 127.712 90.2624 116.616C90.2624 105.577 81.356 96.6203 70.337 96.5307Z" fill="#E6830B"/>
<defs>
<linearGradient id="paint0_linear_1726_51608" x1="180.263" y1="274.407" x2="180.263" y2="256.14" gradientUnits="userSpaceOnUse">
<stop stop-color="white"/>
<stop offset="1" stop-color="white" stop-opacity="0"/>
</linearGradient>
</defs>
</svg>
